<svg xmlns="http://www.w3.org/2000/svg" viewBox="0 0 512 512" role="img" aria-label="장기 (Janggi)">
  <rect width="512" height="512" fill="#ffffff" />
  <g transform="rotate(-45 256 256)">
    <circle cx="256" cy="256" r="124" fill="#0047a0" />
    <path d="M 132 256 A 124 124 0 0 1 380 256 A 62 62 0 0 1 256 256 A 62 62 0 0 0 132 256 Z" fill="#cd2e3a" />
  </g>
  <g transform="translate(256 256) rotate(135) translate(0 160)" fill="#12100f">
    <title>건</title>
    <rect x="-38" y="-27.5" width="76" height="13" rx="3" />
    <rect x="-38" y="-6.5" width="76" height="13" rx="3" />
    <rect x="-38" y="14.5" width="76" height="13" rx="3" />
  </g>
  <g transform="translate(256 256) rotate(45) translate(0 160)" fill="#12100f">
    <title>리</title>
    <rect x="-38" y="-27.5" width="76" height="13" rx="3" />
    <rect x="-38" y="-6.5" width="31" height="13" rx="3" />
    <rect x="7" y="-6.5" width="31" height="13" rx="3" />
    <rect x="-38" y="14.5" width="76" height="13" rx="3" />
  </g>
  <g transform="translate(256 256) rotate(225) translate(0 160)" fill="#12100f">
    <title>감</title>
    <rect x="-38" y="-27.5" width="31" height="13" rx="3" />
    <rect x="7" y="-27.5" width="31" height="13" rx="3" />
    <rect x="-38" y="-6.5" width="76" height="13" rx="3" />
    <rect x="-38" y="14.5" width="31" height="13" rx="3" />
    <rect x="7" y="14.5" width="31" height="13" rx="3" />
  </g>
  <g transform="translate(256 256) rotate(-45) translate(0 160)" fill="#12100f">
    <title>곤</title>
    <rect x="-38" y="-27.5" width="31" height="13" rx="3" />
    <rect x="7" y="-27.5" width="31" height="13" rx="3" />
    <rect x="-38" y="-6.5" width="31" height="13" rx="3" />
    <rect x="7" y="-6.5" width="31" height="13" rx="3" />
    <rect x="-38" y="14.5" width="31" height="13" rx="3" />
    <rect x="7" y="14.5" width="31" height="13" rx="3" />
  </g>
  <g transform="translate(152.737 201.936) scale(1.081)"
     fill="none" stroke="#ffffff" stroke-width="10" stroke-linecap="round" stroke-linejoin="round">
    <path d="M5 15 L55 15" />
    <path d="M30 15 L6 50" />
    <path d="M30 15 L54 50" />
    <path d="M74 5 L74 95" />
    <path d="M74 42 L96 42" />
    <circle cx="30" cy="76" r="19" />
    <path d="M110 16 L168 16 L154 66" />
    <path d="M186 5 L186 95" />
  </g>
</svg>
